<svg xmlns="http://www.w3.org/2000/svg" width="106" height="30" viewBox="0 0 106 30" fill="none">
  <g clip-path="url(#clip0_128_1980)">
    <path d="M1.31826 7.34533C1.31826 7.34533 1.551 7.11975 1.64962 7.00709C2.45023 6.09085 7.0048 1.33195 13.6876 3.10832C21.0803 5.07335 21.7397 13.2167 21.7397 13.2167L24.7097 11.9343L19.5536 2.93826L11.7572 1.31104C11.7572 1.31104 7.65708 1.86365 7.53284 1.89438C7.4086 1.92511 4.42667 3.67517 4.42667 3.67517L3.33956 4.59629L2.56301 5.39451L1.50692 7.00704L1.31826 7.34533Z" fill="white"/>
    <path d="M25.0432 18.9258C25.0432 18.9258 24.8104 19.1514 24.7118 19.2641C23.9111 20.1803 19.3566 24.9392 12.6737 23.1629C5.2812 21.1978 4.62171 13.0544 4.62171 13.0544L1.65174 14.3368L6.80787 23.3328L14.6042 24.96C14.6042 24.96 18.7044 24.4075 18.8286 24.3767C18.9529 24.346 21.9348 22.5959 21.9348 22.5959L23.0219 21.6749L23.7984 20.8766L24.8545 19.2641L25.0432 18.9258Z" fill="white"/>
    <path d="M12.1158 19.2977C12.1158 19.2977 16.2 11.4441 26.2491 14.7484C26.254 14.7484 26.3154 14.1383 26.3154 14.1383L22.1577 12.2529L17.4159 12.6979L15.0027 14.7762L13.6169 16.5003L12.924 17.634L12.4939 18.4371L12.1158 19.2977Z" fill="white"/>
    <path d="M14.2462 6.97375C14.2462 6.97375 10.1619 14.8273 0.112924 11.5231C0.108015 11.5231 0.0465584 12.1332 0.0465584 12.1332L4.20436 14.0186L8.94614 13.5737L11.3593 11.4953L12.7452 9.7712L13.438 8.63753L13.8681 7.83443L14.2462 6.97375Z" fill="white"/>
    <path d="M12.1169 19.2976C12.4374 18.3414 12.8393 17.4139 13.3187 16.5249C13.7216 15.7803 14.1932 15.0739 14.7277 14.4151C15.5666 13.3741 16.5928 12.4952 17.7546 11.8227C18.5718 11.3535 19.4545 11.0061 20.3743 10.792C20.8302 10.6841 21.2951 10.6178 21.7633 10.5938C21.783 10.594 21.8027 10.5925 21.8222 10.5893C21.8202 10.5811 21.8177 10.5726 21.8157 10.5644C21.8252 10.5664 21.8348 10.568 21.8445 10.5691C21.7374 10.1757 21.6089 9.78823 21.4595 9.40845C20.5101 6.83262 18.6842 4.77299 16.3183 3.60891C13.843 2.26778 10.9521 1.88314 8.20619 2.5296C5.46028 3.17604 3.05512 4.80751 1.4572 7.10756L1.45647 7.10868L1.45556 7.10968L1.44817 7.11866C1.39102 7.21788 1.33991 7.3095 1.31463 7.35919C1.32501 7.31123 1.29708 7.27666 1.45003 6.9224C2.57828 4.83001 4.26113 3.0804 6.31831 1.861C8.3755 0.641599 10.7296 -0.00165936 13.1283 0.000125776C20.4366 0.000125776 26.3613 5.85648 26.3613 13.0805C26.3613 13.4118 26.3489 13.74 26.3233 14.077C26.3188 14.1488 26.3134 14.2202 26.307 14.2909C26.3062 14.2865 26.2937 14.2781 26.2709 14.2664C26.2816 14.2626 26.2924 14.2594 26.3034 14.2567C26.2315 14.2335 26.1558 14.2097 26.0787 14.1858C25.6193 14.0134 24.7913 13.7846 23.8448 13.6593C23.1557 13.5479 22.4587 13.491 21.7605 13.489C17.6888 13.489 15.0554 15.5223 13.5633 17.2279C12.9736 17.838 12.4854 18.5365 12.1169 19.2976Z" fill="url(#paint0_linear_128_1980)"/>
    <path d="M14.2444 6.974C13.924 7.93019 13.522 8.85776 13.0427 9.74671C12.6398 10.4914 12.1681 11.1977 11.6337 11.8565C10.7949 12.8976 9.76856 13.7764 8.60671 14.4489C7.78963 14.9181 6.90687 15.2655 5.98706 15.4796C5.53115 15.5875 5.0662 15.6538 4.59804 15.6778C4.57833 15.6775 4.55864 15.679 4.53919 15.6823C4.54123 15.6906 4.54365 15.699 4.54569 15.7072C4.53617 15.7052 4.52654 15.7036 4.51686 15.7025C4.62399 16.0959 4.75252 16.4834 4.90187 16.8632C5.85131 19.439 7.67712 21.4986 10.043 22.6626C12.5183 24.0037 15.4093 24.3884 18.1551 23.742C20.9011 23.0955 23.3063 21.4641 24.9041 19.164L24.9049 19.1629L24.9058 19.1618L24.9132 19.1529C24.9704 19.0537 25.0215 18.9621 25.0468 18.9124C25.0363 18.9604 25.0643 18.995 24.9113 19.3491C23.7831 21.4416 22.1002 23.1912 20.0431 24.4106C17.9858 25.63 15.6319 26.2732 13.2332 26.2715C5.92471 26.2715 1.52588e-05 20.4151 1.52588e-05 13.191C1.52588e-05 12.8599 0.0124848 12.5316 0.0380432 12.1946C0.0425944 12.1228 0.0480104 12.0515 0.0542919 11.9808C0.0551947 11.9851 0.0677198 11.9934 0.0905137 12.0051C0.0798259 12.009 0.0689398 12.0123 0.0579025 12.0149C0.129895 12.0381 0.205553 12.062 0.282736 12.0859C0.741998 12.2582 1.57002 12.487 2.51659 12.6124C3.20569 12.7237 3.90267 12.7806 4.60092 12.7825C8.67255 12.7825 11.3059 10.7493 12.7981 9.04372C13.3877 8.43366 13.8759 7.73506 14.2444 6.974Z" fill="url(#paint1_linear_128_1980)"/>
    <path d="M59.9827 29.0932V26.1684H59.9839C60.2966 26.1692 60.6087 26.141 60.9161 26.084C61.5085 25.9737 62.0713 25.7435 62.5692 25.4077C63.085 25.0572 63.5314 24.6162 63.8862 24.1065C64.2253 23.6161 64.4582 23.0617 64.5704 22.4781C64.6285 22.1751 64.6576 21.8674 64.6574 21.5589C64.3345 21.8043 63.9923 22.0238 63.6341 22.2156C63.2712 22.4091 62.8937 22.5744 62.505 22.7102C62.1075 22.849 61.6985 22.9537 61.2827 23.0228C60.8579 23.0926 60.428 23.1274 59.9974 23.1269C59.6519 23.1273 59.3066 23.106 58.9637 23.0633C58.6313 23.0217 58.302 22.9581 57.9781 22.8728C57.6586 22.7884 57.3452 22.6822 57.0405 22.5553C56.7341 22.4272 56.437 22.2787 56.1511 22.1107C55.8661 21.9434 55.5917 21.759 55.3295 21.5585C54.8127 21.1628 54.3491 20.7033 53.9501 20.1912C53.7474 19.931 53.561 19.6587 53.392 19.376C53.2222 19.0925 53.072 18.7979 52.9423 18.4944C52.8138 18.1933 52.7063 17.8838 52.6207 17.5682C52.5345 17.2492 52.4702 16.9247 52.4279 16.5971C52.3848 16.2602 52.3633 15.9209 52.3636 15.5813V8.10902H52.3709V6.01052C52.3709 6.01052 55.3231 5.95476 55.3422 8.16033H55.3223V15.5813C55.3216 15.8908 55.3503 16.1997 55.408 16.5039C55.5195 17.0895 55.7525 17.6458 56.0922 18.138C56.4474 18.6486 56.8944 19.0904 57.4109 19.4414C57.9088 19.7772 58.4717 20.0075 59.0641 20.1177C59.3717 20.1747 59.6842 20.203 59.9974 20.2023C60.3085 20.2029 60.619 20.1747 60.9248 20.1177C61.5159 20.0068 62.0774 19.7766 62.5744 19.4414C62.8332 19.2667 63.0749 19.0686 63.2966 18.8496C63.5194 18.6316 63.7209 18.3934 63.8985 18.1381C64.2399 17.6464 64.4741 17.0899 64.5864 16.504C64.6444 16.1998 64.6732 15.8909 64.6724 15.5813V8.10902H64.692C64.8079 6.02162 67.6537 6.07522 67.6537 6.07522V8.22055H67.6311V21.5476H67.6165C67.6119 21.8914 67.5864 22.2346 67.5401 22.5753C67.495 22.905 67.4284 23.2315 67.3409 23.5528C67.168 24.1854 66.9099 24.7922 66.5735 25.3569C66.4067 25.6375 66.2224 25.9076 66.0215 26.1655C65.624 26.6755 65.1616 27.1326 64.6457 27.5255C64.3828 27.7257 64.1078 27.9097 63.822 28.0765C63.5352 28.2444 63.2372 28.3929 62.9302 28.5212C62.6256 28.6482 62.3125 28.7543 61.9932 28.8391C61.6703 28.9242 61.3421 28.9879 61.0108 29.0297C60.67 29.0723 60.3263 29.0934 59.9827 29.0932ZM83.8803 23.1562H83.8569V21.5476C83.5321 21.7957 83.1877 22.0176 82.8269 22.2113C82.4616 22.4066 82.0813 22.5735 81.6896 22.7102C81.2921 22.8491 80.8831 22.9537 80.4673 23.0228C80.0426 23.0926 79.6126 23.1275 79.1821 23.127C78.8385 23.1273 78.4953 23.1061 78.1544 23.0634C77.823 23.0217 77.4948 22.9581 77.172 22.8728C76.8526 22.7883 76.5396 22.6822 76.2349 22.5553C75.9279 22.4271 75.63 22.2785 75.3431 22.1107C75.057 21.9436 74.7816 21.7595 74.5183 21.5591C74.0003 21.1647 73.5355 20.7065 73.1352 20.1955C72.9323 19.9364 72.7457 19.6653 72.5766 19.3835C72.4066 19.1009 72.2563 18.8072 72.1268 18.5044C71.9983 18.2031 71.8909 17.8934 71.8055 17.5776C71.7193 17.2574 71.6549 16.9319 71.6127 16.6033C71.5696 16.2643 71.5481 15.9231 71.5485 15.5814C71.5481 15.242 71.5696 14.9029 71.6127 14.566C71.655 14.2389 71.7193 13.915 71.8055 13.5964C71.8911 13.2815 71.9984 12.9728 72.1268 12.6724C72.2565 12.3699 72.4068 12.0765 72.5766 11.7941C72.7458 11.5122 72.9324 11.2409 73.1352 10.9816C73.5358 10.4698 74.0006 10.0103 74.5183 9.61434C74.7817 9.41306 75.0571 9.22781 75.3431 9.05955C75.6298 8.89057 75.9278 8.74095 76.2349 8.61172C76.5395 8.48393 76.8526 8.37705 77.172 8.29183C77.4947 8.20606 77.8229 8.14192 78.1544 8.09987C78.8345 8.01485 79.5227 8.01455 80.2028 8.09898C80.5322 8.14044 80.8584 8.20364 81.1792 8.28815C81.4968 8.37217 81.8082 8.47753 82.1113 8.60347C82.4168 8.73081 82.7133 8.87828 82.9989 9.04489C83.2835 9.21061 83.5577 9.39328 83.82 9.59184C84.3347 9.98194 84.7971 10.4352 85.1958 10.9408C85.3972 11.1967 85.5824 11.4645 85.7505 11.7428C86.0893 12.3023 86.3504 12.9042 86.5271 13.5323C86.6167 13.8512 86.6852 14.1753 86.7325 14.5027C86.781 14.841 86.8088 15.1818 86.8157 15.5233V23.0949H86.8606V25.2863C86.8606 25.2863 86.8538 25.2863 86.8408 25.2863C86.5858 25.2864 83.9485 25.2362 83.8803 23.1562ZM78.2487 11.0454C77.656 11.1564 77.093 11.3879 76.5956 11.7253C76.3373 11.9009 76.0963 12.1001 75.8758 12.3203C75.6543 12.5394 75.4538 12.7784 75.277 13.0342C74.938 13.5254 74.7051 14.0804 74.5929 14.6647C74.5352 14.9669 74.5065 15.2738 74.5073 15.5813C74.5065 15.8909 74.5352 16.1998 74.5929 16.504C74.7044 17.0895 74.9374 17.6459 75.277 18.1381C75.6321 18.6486 76.079 19.0904 76.5955 19.4414C77.0934 19.7772 77.6563 20.0075 78.2486 20.1177C78.8656 20.2304 79.4984 20.2304 80.1154 20.1177C80.7077 20.0075 81.2706 19.7772 81.7685 19.4414C82.2851 19.0904 82.732 18.6487 83.087 18.1381C83.4267 17.6459 83.6596 17.0896 83.7712 16.504C83.8289 16.1998 83.8575 15.8909 83.8567 15.5814C83.8575 15.2738 83.8289 14.9669 83.7712 14.6648C83.659 14.0805 83.4261 13.5254 83.087 13.0343C82.9103 12.7785 82.7098 12.5395 82.4883 12.3204C82.2678 12.1001 82.0268 11.9009 81.7685 11.7254C81.271 11.388 80.7081 11.1564 80.1154 11.0455C79.4984 10.9321 78.8657 10.932 78.2487 11.0454ZM36.8955 23.1562H33.9367V8.10902V6.0751C33.9367 6.0751 36.8963 6.0185 36.9156 8.26456H36.8955V23.1562ZM43.7717 23.1268H40.8129V15.6547C40.8126 15.3152 40.8342 14.976 40.8776 14.6392C40.9202 14.3121 40.9851 13.9881 41.0718 13.6696C41.158 13.3546 41.2662 13.0459 41.3955 12.7456C41.5262 12.443 41.6775 12.1495 41.8485 11.8672C42.0189 11.5855 42.2063 11.3142 42.4097 11.0547C42.8111 10.5434 43.2759 10.084 43.7932 9.68728C44.0557 9.48619 44.3301 9.3009 44.6152 9.1325C44.9007 8.96348 45.1976 8.81386 45.5037 8.68467C45.8075 8.55686 46.1198 8.44998 46.4385 8.36478C46.7608 8.27899 47.0885 8.21485 47.4196 8.17282C47.7602 8.12989 48.1033 8.10852 48.4467 8.10885V11.0334H48.4457C48.1349 11.0328 47.8247 11.0612 47.5193 11.1184C47.225 11.1742 46.9372 11.2597 46.6604 11.3734C46.383 11.4882 46.1181 11.6306 45.8699 11.7983C45.3521 12.1518 44.9035 12.5952 44.5459 13.1071C44.3761 13.3525 44.2321 13.6143 44.1159 13.8885C44.0009 14.1621 43.9145 14.4466 43.858 14.7376C43.8001 15.0398 43.7712 15.3467 43.7719 15.6543L43.7717 23.1268ZM97.3459 23.0638C97.0165 23.0224 96.69 22.9592 96.3691 22.8746C96.0521 22.7906 95.7407 22.6852 95.4379 22.5593C95.1322 22.432 94.835 22.2846 94.5498 22.118C94.2652 21.9522 93.9911 21.7695 93.7288 21.5709C93.214 21.1809 92.7517 20.7277 92.353 20.222C92.1516 19.9662 91.9663 19.6984 91.7983 19.42C91.4595 18.8605 91.1983 18.2587 91.0216 17.6305C90.9322 17.3117 90.8636 16.9876 90.8164 16.6601C90.7678 16.3219 90.7401 15.9811 90.7332 15.6396V2.12807H90.7682V0.00013033C90.7682 0.00013033 93.712 -0.0566431 93.7309 2.19968H93.6916V9.62972C94.0157 9.37734 94.3602 9.15179 94.7214 8.95526C95.0867 8.75768 95.4663 8.58955 95.859 8.45256C96.2565 8.31367 96.6654 8.20908 97.0809 8.13997C97.5058 8.07014 97.9355 8.03529 98.3661 8.03579C98.7115 8.03545 99.057 8.05667 99.4006 8.09932C99.7327 8.14098 100.062 8.20463 100.386 8.28988C100.706 8.37433 101.019 8.48043 101.324 8.60743C101.629 8.73555 101.927 8.88411 102.212 9.05208C102.498 9.2193 102.773 9.40369 103.034 9.60422C103.552 9.99994 104.014 10.4594 104.414 10.9715C104.616 11.2317 104.803 11.504 104.972 11.7867C105.142 12.0702 105.292 12.3647 105.422 12.6683C105.55 12.9694 105.657 13.2789 105.743 13.5946C105.829 13.9136 105.893 14.238 105.936 14.5656C106.022 15.2402 106.022 15.9227 105.936 16.5973C105.893 16.9249 105.829 17.2493 105.743 17.5684C105.657 17.884 105.55 18.1935 105.422 18.4946C105.292 18.7981 105.142 19.0927 104.972 19.3762C104.803 19.6589 104.616 19.9312 104.414 20.1914C104.014 20.7035 103.552 21.1629 103.034 21.5587C102.773 21.7592 102.498 21.9436 102.212 22.1108C101.927 22.2788 101.629 22.4273 101.324 22.5554C101.019 22.6824 100.706 22.7886 100.386 22.873C100.062 22.9583 99.7327 23.0219 99.4006 23.0635C99.057 23.1062 98.7115 23.1274 98.3661 23.1271C98.0254 23.1273 97.6847 23.1062 97.3459 23.0638ZM97.4396 11.045C96.848 11.1559 96.2868 11.3861 95.7899 11.7213C95.5306 11.896 95.2893 12.0941 95.0678 12.3131C94.8444 12.5311 94.6429 12.7693 94.4657 13.0246C94.1243 13.5163 93.8901 14.0727 93.7778 14.6587C93.6632 15.2685 93.6632 15.894 93.7778 16.5039C93.8902 17.0898 94.1243 17.6463 94.4657 18.1379C94.6429 18.3933 94.8444 18.6315 95.0678 18.8495C95.2893 19.0685 95.5306 19.2666 95.7899 19.4413C96.2868 19.7765 96.848 20.0067 97.4396 20.1176C97.7453 20.1745 98.0557 20.2028 98.3671 20.2021C98.6794 20.2029 98.9926 20.1746 99.3002 20.1176C99.8927 20.0074 100.455 19.777 100.954 19.4413C101.469 19.0903 101.917 18.6486 102.272 18.138C102.612 17.6458 102.845 17.0895 102.956 16.5039C103.07 15.894 103.07 15.2686 102.956 14.6587C102.845 14.0732 102.612 13.5168 102.272 13.0247C101.917 12.5141 101.469 12.0724 100.954 11.7214C100.455 11.3856 99.8927 11.1553 99.3002 11.0451C98.9926 10.9881 98.6794 10.9598 98.3671 10.9605C98.0557 10.9598 97.7453 10.9881 97.4396 11.045ZM36.0693 4.77294C35.336 4.77294 34.6329 4.48503 34.1144 3.97255C33.5959 3.46007 33.3047 2.765 33.3047 2.04023V1.62487H34.6149C34.9113 1.62487 35.2048 1.68257 35.4786 1.79467C35.7524 1.90678 36.0011 2.0711 36.2107 2.27825C36.4203 2.48539 36.5865 2.73131 36.6999 3.00196C36.8133 3.27262 36.8717 3.5627 36.8717 3.85565V4.77294H36.0693Z" fill="white"/>
    <path d="M36.8995 23.1525H33.9418V23.6642H36.8995V23.1525Z" fill="white"/>
    <path d="M43.7788 23.1168H40.8209V23.664H43.7788V23.1168Z" fill="white"/>
    <path d="M60.0491 29.0929V26.1747H59.6032V29.0929H60.0491Z" fill="white"/>
  </g>
  <defs>
    <linearGradient id="paint0_linear_128_1980" x1="13.2368" y1="0.000122068" x2="13.5938" y2="19.3021" gradientUnits="userSpaceOnUse">
      <stop stop-color="white"/>
      <stop offset="1" stop-color="white"/>
    </linearGradient>
    <linearGradient id="paint1_linear_128_1980" x1="13.1245" y1="26.2715" x2="12.7676" y2="6.96948" gradientUnits="userSpaceOnUse">
      <stop stop-color="white"/>
      <stop offset="1" stop-color="white"/>
    </linearGradient>
    <clipPath id="clip0_128_1980">
      <rect width="106" height="30" fill="white"/>
    </clipPath>
  </defs>
</svg>