<svg width="57" height="41" viewBox="0 0 57 41" fill="none" xmlns="http://www.w3.org/2000/svg">
<g filter="url(#filter0_d_2650_3083)">
<mask id="path-1-inside-1_2650_3083" fill="#F6C002">
<path fill-rule="evenodd" clip-rule="evenodd" d="M4.64014 0.0699463C3.53557 0.0699463 2.64014 0.965376 2.64014 2.06995V27.0699C2.64014 28.1745 3.53557 29.0699 4.64014 29.0699H23.4057L30.1401 35.1717L36.8745 29.0699H52.6401C53.7447 29.0699 54.6401 28.1745 54.6401 27.0699V2.06995C54.6401 0.965377 53.7447 0.0699463 52.6401 0.0699463H4.64014Z"/>
</mask>
<path fill-rule="evenodd" clip-rule="evenodd" d="M4.64014 0.0699463C3.53557 0.0699463 2.64014 0.965376 2.64014 2.06995V27.0699C2.64014 28.1745 3.53557 29.0699 4.64014 29.0699H23.4057L30.1401 35.1717L36.8745 29.0699H52.6401C53.7447 29.0699 54.6401 28.1745 54.6401 27.0699V2.06995C54.6401 0.965377 53.7447 0.0699463 52.6401 0.0699463H4.64014Z" fill="#F6C002"/>
<path d="M23.4057 29.0699L24.0772 28.3289L23.7914 28.0699H23.4057V29.0699ZM30.1401 35.1717L29.4687 35.9128L30.1401 36.5211L30.8116 35.9128L30.1401 35.1717ZM36.8745 29.0699V28.0699H36.4889L36.2031 28.3289L36.8745 29.0699ZM3.64014 2.06995C3.64014 1.51766 4.08785 1.06995 4.64014 1.06995V-0.930054C2.98328 -0.930054 1.64014 0.413091 1.64014 2.06995H3.64014ZM3.64014 27.0699V2.06995H1.64014V27.0699H3.64014ZM4.64014 28.0699C4.08785 28.0699 3.64014 27.6222 3.64014 27.0699H1.64014C1.64014 28.7268 2.98329 30.0699 4.64014 30.0699V28.0699ZM23.4057 28.0699H4.64014V30.0699H23.4057V28.0699ZM30.8116 34.4306L24.0772 28.3289L22.7343 29.811L29.4687 35.9128L30.8116 34.4306ZM36.2031 28.3289L29.4687 34.4306L30.8116 35.9128L37.546 29.811L36.2031 28.3289ZM52.6401 28.0699H36.8745V30.0699H52.6401V28.0699ZM53.6401 27.0699C53.6401 27.6222 53.1924 28.0699 52.6401 28.0699V30.0699C54.297 30.0699 55.6401 28.7268 55.6401 27.0699H53.6401ZM53.6401 2.06995V27.0699H55.6401V2.06995H53.6401ZM52.6401 1.06995C53.1924 1.06995 53.6401 1.51766 53.6401 2.06995H55.6401C55.6401 0.413092 54.297 -0.930054 52.6401 -0.930054V1.06995ZM4.64014 1.06995H52.6401V-0.930054H4.64014V1.06995Z" fill="#D3D3D3" mask="url(#path-1-inside-1_2650_3083)"/>
</g>
<defs>
<filter id="filter0_d_2650_3083" x="0.640137" y="0.0699463" width="56" height="40.1018" filterUnits="userSpaceOnUse" color-interpolation-filters="sRGB">
<feFlood flood-opacity="0" result="BackgroundImageFix"/>
<feColorMatrix in="SourceAlpha" type="matrix" values="0 0 0 0 0 0 0 0 0 0 0 0 0 0 0 0 0 0 127 0" result="hardAlpha"/>
<feOffset dy="3"/>
<feGaussianBlur stdDeviation="1"/>
<feColorMatrix type="matrix" values="0 0 0 0 0 0 0 0 0 0 0 0 0 0 0 0 0 0 0.1 0"/>
<feBlend mode="normal" in2="BackgroundImageFix" result="effect1_dropShadow_2650_3083"/>
<feBlend mode="normal" in="SourceGraphic" in2="effect1_dropShadow_2650_3083" result="shape"/>
</filter>
</defs>
</svg>