<svg width="144" height="41" viewBox="0 0 144 41" fill="none" xmlns="http://www.w3.org/2000/svg">
<g clip-path="url(#clip0_222_7328)">
<path d="M1.79102 10.0389C1.79102 10.0389 2.10719 9.73057 2.24117 9.5766C3.32878 8.32441 9.51613 1.82058 18.5947 4.24828C28.6375 6.93383 29.5334 18.0631 29.5334 18.0631L33.5681 16.3105L26.5635 4.01587L15.9722 1.79199C15.9722 1.79199 10.4022 2.54724 10.2335 2.58922C10.0647 2.63122 6.01376 5.02297 6.01376 5.02297L4.53693 6.28184L3.482 7.37275L2.04731 9.57653L1.79102 10.0389Z" fill="white"/>
<path d="M34.0212 25.865C34.0212 25.865 33.705 26.1733 33.571 26.3273C32.4833 27.5795 26.2961 34.0834 17.2174 31.6556C7.17473 28.97 6.27881 17.8408 6.27881 17.8408L2.24414 19.5933L9.24869 31.8879L19.84 34.1118C19.84 34.1118 25.41 33.3566 25.5788 33.3146C25.7476 33.2726 29.7985 30.8809 29.7985 30.8809L31.2753 29.622L32.3302 28.5311L33.7649 26.3273L34.0212 25.865Z" fill="white"/>
<path d="M16.459 26.3739C16.459 26.3739 22.0074 15.6408 35.6589 20.1565C35.6656 20.1565 35.7491 19.3228 35.7491 19.3228L30.1008 16.7461L23.6591 17.3542L20.3808 20.1946L18.4983 22.5508L17.557 24.1002L16.9726 25.1977L16.459 26.3739Z" fill="white"/>
<path d="M19.3536 9.53125C19.3536 9.53125 13.8051 20.2645 0.153633 15.7487C0.146965 15.7487 0.0634766 16.5825 0.0634766 16.5825L5.71181 19.1593L12.1535 18.5512L15.4318 15.7106L17.3144 13.3544L18.2556 11.8051L18.8399 10.7075L19.3536 9.53125Z" fill="white"/>
<path d="M16.461 26.3732C16.8963 25.0664 17.4424 23.7988 18.0936 22.5839C18.6409 21.5662 19.2816 20.6009 20.0076 19.7004C21.1473 18.2777 22.5414 17.0766 24.1197 16.1575C25.2298 15.5163 26.429 15.0416 27.6786 14.7489C28.2979 14.6014 28.9294 14.5109 29.5655 14.4781C29.5922 14.4783 29.619 14.4763 29.6455 14.4719C29.6428 14.4606 29.6394 14.4491 29.6366 14.4378C29.6496 14.4406 29.6626 14.4428 29.6758 14.4442C29.5303 13.9066 29.3557 13.3771 29.1528 12.858C27.8629 9.33775 25.3825 6.52292 22.1685 4.93201C18.8059 3.09914 14.8785 2.57346 11.1483 3.45695C7.41796 4.34042 4.15057 6.57009 1.97981 9.7135L1.97882 9.71502L1.97759 9.71639L1.96755 9.72867C1.88992 9.86426 1.82047 9.98948 1.78613 10.0574C1.80024 9.99185 1.7623 9.9446 1.97008 9.46045C3.50279 6.60084 5.78892 4.20971 8.58359 2.5432C11.3783 0.876686 14.5762 -0.00243463 17.8349 5.06408e-06C27.7632 5.06408e-06 35.8119 8.0037 35.8119 17.8766C35.8119 18.3292 35.7949 18.7778 35.7602 19.2384C35.754 19.3366 35.7467 19.4341 35.7381 19.5307C35.7369 19.5248 35.7199 19.5132 35.689 19.4972C35.7035 19.4921 35.7183 19.4876 35.7332 19.484C35.6355 19.4523 35.5326 19.4197 35.4278 19.387C34.8039 19.1515 33.679 18.8388 32.3932 18.6675C31.457 18.5153 30.5101 18.4375 29.5616 18.4348C24.0304 18.4348 20.4529 21.2136 18.4258 23.5446C17.6248 24.3784 16.9615 25.3331 16.461 26.3732Z" fill="url(#paint0_linear_222_7328)"/>
<path d="M19.3509 9.53125C18.9157 10.838 18.3695 12.1057 17.7184 13.3206C17.1711 14.3383 16.5303 15.3036 15.8042 16.2039C14.6647 17.6268 13.2705 18.8278 11.6921 19.747C10.5821 20.3883 9.3829 20.863 8.13334 21.1556C7.51399 21.3031 6.88237 21.3937 6.24638 21.4265C6.2196 21.4261 6.19285 21.4281 6.16643 21.4326C6.1692 21.4439 6.17249 21.4554 6.17525 21.4667C6.16232 21.4639 6.14924 21.4617 6.13609 21.4601C6.28163 21.9979 6.45623 22.5274 6.65912 23.0465C7.94893 26.5667 10.4293 29.3816 13.6433 30.9724C17.006 32.8052 20.9333 33.3309 24.6636 32.4475C28.3939 31.564 31.6613 29.3343 33.832 26.1909L33.833 26.1894L33.8343 26.188L33.8443 26.1758C33.922 26.0402 33.9914 25.9149 34.0258 25.847C34.0116 25.9126 34.0495 25.9599 33.8418 26.444C32.3091 29.3036 30.0229 31.6948 27.2283 33.3613C24.4336 35.0278 21.2357 35.9069 17.9771 35.9044C8.04864 35.9044 0 27.9007 0 18.0278C0 17.5753 0.0169398 17.1267 0.0516606 16.6661C0.0578434 16.568 0.065201 16.4704 0.0737343 16.3738C0.0749607 16.3797 0.091976 16.3911 0.122941 16.4072C0.108422 16.4124 0.0936334 16.4169 0.0786393 16.4205C0.17644 16.4521 0.279222 16.4848 0.384074 16.5175C1.00798 16.753 2.13284 17.0657 3.41874 17.237C4.35487 17.3892 5.30172 17.467 6.25029 17.4696C11.7816 17.4696 15.359 14.6908 17.386 12.3599C18.187 11.5261 18.8502 10.5714 19.3509 9.53125Z" fill="url(#paint1_linear_222_7328)"/>
<path d="M81.486 39.7606V35.7635H81.4875C81.9123 35.7646 82.3363 35.726 82.754 35.6481C83.5587 35.4974 84.3233 35.1827 84.9997 34.7238C85.7004 34.2449 86.3068 33.6422 86.7888 32.9455C87.2495 32.2753 87.5659 31.5176 87.7182 30.72C87.7972 30.3059 87.8368 29.8854 87.8365 29.4639C87.3978 29.7992 86.9329 30.0993 86.4463 30.3613C85.9533 30.6257 85.4405 30.8517 84.9124 31.0373C84.3724 31.227 83.8169 31.37 83.2519 31.4644C82.6749 31.5599 82.0909 31.6074 81.5059 31.6068C81.0365 31.6073 80.5675 31.5782 80.1017 31.5199C79.65 31.463 79.2027 31.376 78.7627 31.2596C78.3287 31.1441 77.903 30.9991 77.489 30.8256C77.0728 30.6504 76.6692 30.4475 76.2808 30.2179C75.8935 29.9893 75.5208 29.7373 75.1646 29.4632C74.4625 28.9224 73.8328 28.2945 73.2907 27.5947C73.0153 27.239 72.7622 26.8669 72.5325 26.4805C72.3019 26.093 72.0978 25.6905 71.9216 25.2757C71.7471 24.8642 71.601 24.4413 71.4847 24.0099C71.3677 23.5738 71.2802 23.1304 71.2228 22.6827C71.1643 22.2223 71.1351 21.7586 71.1355 21.2944V11.0823H71.1454V8.21438C71.1454 8.21438 75.1559 8.13817 75.1819 11.1524H75.1549V21.2945C75.1538 21.7174 75.1928 22.1396 75.2712 22.5554C75.4227 23.3556 75.7392 24.1159 76.2007 24.7886C76.6832 25.4864 77.2904 26.0902 77.9922 26.5699C78.6686 27.0289 79.4332 27.3435 80.2379 27.4942C80.6559 27.5721 81.0805 27.6108 81.5059 27.6098C81.9285 27.6107 82.3504 27.5721 82.7658 27.4942C83.5687 27.3426 84.3315 27.028 85.0067 26.5699C85.3583 26.3311 85.6867 26.0604 85.9878 25.7611C86.2904 25.4632 86.5642 25.1376 86.8055 24.7887C87.2693 24.1167 87.5875 23.3562 87.74 22.5555C87.8188 22.1397 87.8579 21.7176 87.8568 21.2945V11.0823H87.8834C88.0409 8.22955 91.907 8.30279 91.907 8.30279V11.2348H91.8762V29.4484H91.8563C91.8501 29.9182 91.8155 30.3873 91.7525 30.8529C91.6913 31.3035 91.6008 31.7498 91.4819 32.1888C91.2471 33.0534 90.8965 33.8827 90.4394 34.6545C90.2129 35.038 89.9624 35.4071 89.6896 35.7596C89.1496 36.4566 88.5214 37.0812 87.8206 37.6181C87.4634 37.8918 87.0898 38.1433 86.7016 38.3713C86.3119 38.6007 85.9072 38.8037 85.4901 38.979C85.0762 39.1526 84.6509 39.2976 84.2171 39.4134C83.7785 39.5298 83.3327 39.6168 82.8825 39.6739C82.4195 39.7321 81.9527 39.761 81.486 39.7606ZM113.951 31.6467H113.919V29.4484C113.478 29.7874 113.01 30.0907 112.52 30.3554C112.023 30.6224 111.507 30.8504 110.974 31.0373C110.434 31.2271 109.879 31.37 109.314 31.4644C108.737 31.5599 108.153 31.6075 107.568 31.6069C107.101 31.6073 106.635 31.5783 106.172 31.52C105.722 31.463 105.276 31.376 104.837 31.2596C104.404 31.144 103.978 30.9989 103.564 30.8256C103.147 30.6503 102.743 30.4472 102.353 30.2179C101.964 29.9896 101.59 29.7379 101.232 29.4641C100.529 28.9251 99.8973 28.2988 99.3534 27.6006C99.0778 27.2464 98.8244 26.8759 98.5946 26.4907C98.3637 26.1046 98.1595 25.7032 97.9835 25.2893C97.809 24.8775 97.6631 24.4543 97.5471 24.0227C97.43 23.5851 97.3424 23.1403 97.2852 22.6912C97.2266 22.2279 97.1974 21.7615 97.1979 21.2946C97.1974 20.8307 97.2266 20.3673 97.2852 19.9069C97.3426 19.4599 97.43 19.0172 97.5471 18.5817C97.6634 18.1513 97.8092 17.7294 97.9835 17.3189C98.1598 16.9056 98.3639 16.5046 98.5946 16.1186C98.8245 15.7334 99.0779 15.3626 99.3534 15.0082C99.8977 14.3087 100.529 13.6808 101.232 13.1396C101.59 12.8645 101.964 12.6113 102.353 12.3814C102.742 12.1504 103.147 11.946 103.564 11.7694C103.978 11.5947 104.403 11.4486 104.837 11.3322C105.276 11.2149 105.722 11.1273 106.172 11.0698C107.096 10.9536 108.031 10.9532 108.955 11.0686C109.402 11.1253 109.845 11.2116 110.281 11.3271C110.713 11.442 111.136 11.586 111.547 11.7581C111.962 11.9321 112.365 12.1337 112.753 12.3613C113.14 12.5878 113.512 12.8375 113.869 13.1089C114.568 13.642 115.196 14.2615 115.738 14.9524C116.011 15.3021 116.263 15.6682 116.491 16.0484C116.952 16.8131 117.306 17.6358 117.546 18.4942C117.668 18.93 117.761 19.3729 117.825 19.8204C117.891 20.2827 117.929 20.7484 117.938 21.2152V31.5631H117.999V34.558C117.999 34.558 117.99 34.558 117.972 34.558C117.626 34.5581 114.043 34.4895 113.951 31.6467ZM106.3 15.0954C105.495 15.2471 104.73 15.5635 104.054 16.0246C103.704 16.2646 103.376 16.5368 103.077 16.8378C102.776 17.1372 102.503 17.4638 102.263 17.8133C101.803 18.4847 101.486 19.2432 101.334 20.0417C101.255 20.4548 101.216 20.8743 101.217 21.2945C101.216 21.7176 101.255 22.1397 101.334 22.5555C101.485 23.3556 101.802 24.1161 102.263 24.7887C102.746 25.4864 103.353 26.0902 104.054 26.5699C104.731 27.0289 105.495 27.3435 106.3 27.4942C107.138 27.6482 107.998 27.6482 108.836 27.4942C109.641 27.3435 110.405 27.0289 111.082 26.5699C111.783 26.0902 112.391 25.4865 112.873 24.7887C113.334 24.1161 113.651 23.3558 113.802 22.5555C113.881 22.1397 113.92 21.7176 113.919 21.2946C113.92 20.8743 113.881 20.4548 113.802 20.0418C113.65 19.2433 113.334 18.4847 112.873 17.8135C112.633 17.464 112.36 17.1374 112.06 16.8379C111.76 16.5368 111.433 16.2646 111.082 16.0247C110.406 15.5636 109.641 15.2471 108.836 15.0956C107.998 14.9405 107.138 14.9404 106.3 15.0954ZM50.1221 31.6467H46.1026V11.0823V8.30264C46.1026 8.30264 50.1233 8.22528 50.1495 11.2949H50.1221V31.6467ZM59.4634 31.6066H55.444V21.3947C55.4435 20.9308 55.4729 20.4672 55.5318 20.007C55.5896 19.5598 55.6778 19.117 55.7956 18.6818C55.9127 18.2513 56.0597 17.8294 56.2353 17.419C56.4129 17.0054 56.6185 16.6044 56.8508 16.2186C57.0822 15.8336 57.3368 15.4628 57.6132 15.1081C58.1585 14.4093 58.7899 13.7815 59.4927 13.2393C59.8492 12.9645 60.2221 12.7112 60.6093 12.4811C60.9972 12.2501 61.4006 12.0456 61.8164 11.8691C62.2291 11.6944 62.6534 11.5483 63.0863 11.4319C63.524 11.3146 63.9693 11.227 64.419 11.1695C64.8818 11.1108 65.3478 11.0816 65.8144 11.0821V15.079H65.813C65.3908 15.0781 64.9694 15.117 64.5545 15.1951C64.1547 15.2713 63.7637 15.3882 63.3878 15.5436C63.0109 15.7006 62.651 15.8952 62.3138 16.1244C61.6104 16.6074 61.001 17.2135 60.5152 17.913C60.2846 18.2485 60.0889 18.6062 59.931 18.9809C59.7748 19.3548 59.6574 19.7437 59.5806 20.1414C59.5019 20.5543 59.4627 20.9738 59.4638 21.3942L59.4634 31.6066ZM132.243 31.5205C131.796 31.4639 131.352 31.3776 130.917 31.262C130.486 31.1472 130.063 31.0032 129.651 30.8311C129.236 30.6571 128.832 30.4556 128.445 30.2279C128.058 30.0014 127.686 29.7517 127.33 29.4803C126.63 28.9473 126.002 28.3278 125.461 27.6367C125.187 27.2872 124.935 26.9211 124.707 26.5407C124.247 25.7761 123.892 24.9535 123.652 24.0951C123.531 23.6593 123.437 23.2164 123.373 22.7688C123.307 22.3066 123.27 21.8408 123.26 21.3741V2.90836H123.308V0.000178118C123.308 0.000178118 127.307 -0.0774123 127.332 3.00624H127.279V13.1606C127.719 12.8157 128.187 12.5074 128.678 12.2389C129.174 11.9688 129.69 11.7391 130.224 11.5518C130.764 11.362 131.319 11.2191 131.883 11.1246C132.461 11.0292 133.044 10.9816 133.629 10.9822C134.099 10.9818 134.568 11.0108 135.035 11.0691C135.486 11.126 135.933 11.213 136.373 11.3295C136.808 11.4449 137.233 11.5899 137.647 11.7635C138.063 11.9386 138.466 12.1416 138.855 12.3712C139.243 12.5997 139.616 12.8517 139.971 13.1258C140.674 13.6666 141.303 14.2945 141.845 14.9943C142.12 15.35 142.374 15.7221 142.604 16.1085C142.834 16.496 143.038 16.8984 143.214 17.3133C143.389 17.7248 143.535 18.1479 143.65 18.5793C143.767 19.0153 143.855 19.4586 143.913 19.9063C144.03 20.8283 144.03 21.761 143.913 22.683C143.855 23.1307 143.767 23.5741 143.65 24.0101C143.535 24.4415 143.389 24.8645 143.214 25.276C143.038 25.6907 142.834 26.0933 142.604 26.4807C142.374 26.8672 142.12 27.2392 141.845 27.5949C141.303 28.2947 140.674 28.9227 139.971 29.4635C139.616 29.7376 139.243 29.9896 138.855 30.218C138.466 30.4476 138.063 30.6507 137.647 30.8257C137.233 30.9993 136.808 31.1444 136.373 31.2598C135.933 31.3763 135.486 31.4633 135.035 31.5202C134.568 31.5785 134.099 31.6074 133.629 31.607C133.167 31.6073 132.704 31.5785 132.243 31.5205ZM132.371 15.0948C131.567 15.2464 130.805 15.561 130.13 16.0191C129.777 16.2579 129.45 16.5286 129.149 16.8279C128.845 17.1258 128.571 17.4514 128.331 17.8003C127.867 18.4723 127.549 19.2327 127.396 20.0335C127.241 20.8669 127.241 21.7218 127.396 22.5554C127.549 23.356 127.867 24.1166 128.331 24.7885C128.571 25.1375 128.845 25.4631 129.149 25.7609C129.45 26.0602 129.777 26.331 130.13 26.5698C130.805 27.0278 131.567 27.3425 132.371 27.4941C132.786 27.5719 133.208 27.6106 133.631 27.6095C134.055 27.6107 134.481 27.572 134.898 27.4941C135.703 27.3434 136.467 27.0286 137.145 26.5698C137.845 26.0901 138.453 25.4864 138.936 24.7886C139.397 24.1159 139.713 23.3556 139.865 22.5554C140.019 21.7218 140.019 20.8671 139.865 20.0335C139.713 19.2334 139.397 18.4729 138.936 17.8004C138.453 17.1026 137.845 16.4989 137.145 16.0192C136.467 15.5603 135.703 15.2456 134.898 15.0949C134.481 15.017 134.055 14.9783 133.631 14.9794C133.208 14.9783 132.786 15.017 132.371 15.0948ZM48.9998 6.52302C48.0037 6.52302 47.0485 6.12954 46.3441 5.42916C45.6398 4.72876 45.2441 3.77883 45.2441 2.78832V2.22065H47.024C47.4266 2.22065 47.8253 2.29951 48.1973 2.45272C48.5693 2.60593 48.9071 2.8305 49.1919 3.1136C49.4766 3.3967 49.7024 3.73279 49.8565 4.10268C50.0105 4.47257 50.0899 4.86902 50.0899 5.26938V6.52302H48.9998Z" fill="white"/>
<path d="M50.1275 31.6416H46.1094V32.3409H50.1275V31.6416Z" fill="white"/>
<path d="M59.4733 31.5928H55.4551V32.3406H59.4733V31.5928Z" fill="white"/>
<path d="M81.5764 39.7607V35.7725H80.9707V39.7607H81.5764Z" fill="white"/>
</g>
<defs>
<linearGradient id="paint0_linear_222_7328" x1="17.9824" y1="-2.83849e-09" x2="18.4732" y2="26.3793" gradientUnits="userSpaceOnUse">
<stop stop-color="white"/>
<stop offset="1" stop-color="white"/>
</linearGradient>
<linearGradient id="paint1_linear_222_7328" x1="17.8295" y1="35.9044" x2="17.3388" y2="9.52519" gradientUnits="userSpaceOnUse">
<stop stop-color="white"/>
<stop offset="1" stop-color="white"/>
</linearGradient>
<clipPath id="clip0_222_7328">
<rect width="144" height="41" fill="white"/>
</clipPath>
</defs>
</svg>
