<svg width="66" height="43" viewBox="0 0 66 43" fill="none" xmlns="http://www.w3.org/2000/svg">
<g id="shape" filter="url(#filter0_d_623_139)">
<mask id="path-1-inside-1_623_139" fill="white">
<path fill-rule="evenodd" clip-rule="evenodd" d="M4.23926 0.292358C3.13469 0.292358 2.23926 1.18779 2.23926 2.29236V29.2924C2.23926 30.3969 3.13469 31.2924 4.23926 31.2924H23.0049L29.7393 37.3941L36.4737 31.2924H61.2393C62.3438 31.2924 63.2393 30.3969 63.2393 29.2924V2.29236C63.2393 1.18779 62.3438 0.292358 61.2393 0.292358H4.23926Z"/>
</mask>
<path fill-rule="evenodd" clip-rule="evenodd" d="M4.23926 0.292358C3.13469 0.292358 2.23926 1.18779 2.23926 2.29236V29.2924C2.23926 30.3969 3.13469 31.2924 4.23926 31.2924H23.0049L29.7393 37.3941L36.4737 31.2924H61.2393C62.3438 31.2924 63.2393 30.3969 63.2393 29.2924V2.29236C63.2393 1.18779 62.3438 0.292358 61.2393 0.292358H4.23926Z" fill="white"/>
<path d="M23.0049 31.2924L23.6763 30.5513L23.3905 30.2924H23.0049V31.2924ZM29.7393 37.3941L29.0678 38.1352L29.7393 38.7435L30.4107 38.1352L29.7393 37.3941ZM36.4737 31.2924V30.2924H36.088L35.8022 30.5513L36.4737 31.2924ZM3.23926 2.29236C3.23926 1.74007 3.68697 1.29236 4.23926 1.29236V-0.707642C2.5824 -0.707642 1.23926 0.635504 1.23926 2.29236H3.23926ZM3.23926 29.2924V2.29236H1.23926V29.2924H3.23926ZM4.23926 30.2924C3.68697 30.2924 3.23926 29.8446 3.23926 29.2924H1.23926C1.23926 30.9492 2.58241 32.2924 4.23926 32.2924V30.2924ZM23.0049 30.2924H4.23926V32.2924H23.0049V30.2924ZM30.4107 36.6531L23.6763 30.5513L22.3334 32.0334L29.0678 38.1352L30.4107 36.6531ZM35.8022 30.5513L29.0678 36.6531L30.4107 38.1352L37.1451 32.0334L35.8022 30.5513ZM61.2393 30.2924H36.4737V32.2924H61.2393V30.2924ZM62.2393 29.2924C62.2393 29.8446 61.7915 30.2924 61.2393 30.2924V32.2924C62.8961 32.2924 64.2393 30.9492 64.2393 29.2924H62.2393ZM62.2393 2.29236V29.2924H64.2393V2.29236H62.2393ZM61.2393 1.29236C61.7915 1.29236 62.2393 1.74007 62.2393 2.29236H64.2393C64.2393 0.635504 62.8961 -0.707642 61.2393 -0.707642V1.29236ZM4.23926 1.29236H61.2393V-0.707642H4.23926V1.29236Z" fill="#D3D3D3" mask="url(#path-1-inside-1_623_139)"/>
</g>
<defs>
<filter id="filter0_d_623_139" x="0.239258" y="0.292358" width="65" height="42.1018" filterUnits="userSpaceOnUse" color-interpolation-filters="sRGB">
<feFlood flood-opacity="0" result="BackgroundImageFix"/>
<feColorMatrix in="SourceAlpha" type="matrix" values="0 0 0 0 0 0 0 0 0 0 0 0 0 0 0 0 0 0 127 0" result="hardAlpha"/>
<feOffset dy="3"/>
<feGaussianBlur stdDeviation="1"/>
<feColorMatrix type="matrix" values="0 0 0 0 0 0 0 0 0 0 0 0 0 0 0 0 0 0 0.1 0"/>
<feBlend mode="normal" in2="BackgroundImageFix" result="effect1_dropShadow_623_139"/>
<feBlend mode="normal" in="SourceGraphic" in2="effect1_dropShadow_623_139" result="shape"/>
</filter>
</defs>
</svg>
